<svg xmlns="http://www.w3.org/2000/svg" width="604" height="918" viewBox="0 0 604 918">
  <g fill="none" fill-rule="evenodd" transform="translate(0 .5)">
    <path fill="#663C16" d="M561,420.5 C574.333333,404.166667 582.666667,396.666667 586,398 C591,400 586,514 573.5,530 C561,546 545.5,573.5 539,573.5 C534.666667,573.5 534.666667,579.833333 539,592.5 C567,564.166667 582.666667,536.666667 586,510 C591,470 616.5,390 595,390 C580.666667,390 569.333333,395.666667 561,407 L561,420.5 Z"/>
    <path fill="#C3C09D" d="M527,591 C522.666667,579.333333 524.5,573.5 532.5,573.5 C544.5,573.5 559,579 572.5,535.5 C586,492 595,457 595,425.5 C595,394 587.5,397.5 580,397.5 C575,397.5 568.666667,407.833333 561,428.5 C561,290.833333 551.5,203 532.5,165 C504,108 432.5,4.5 287.5,4.5 C142.5,4.5 64,140.5 53,199 C42,257.5 42.5,367 35,403 C27.5,439 53.5,670 67,714.5 C80.5,759 113,880 274.5,880 C436,880 490.5,814 511.5,760.5 C525.5,724.833333 530.666667,668.333333 527,591 Z"/>
    <path fill="#FFF" d="M122.293053 405.749912C127.179022 380.97107 142.185926 368.58165 167.313765 368.58165 192.441605 368.58165 214.602963 378.528086 233.797841 398.420959 223.676905 411.333876 205.180023 417.790335 178.307195 417.790335 151.434367 417.790335 132.762986 413.776861 122.293053 405.749912zM334.871565 406.867395C354.066442 386.276527 373.086821 375.981093 391.9327 375.981093 410.77858 375.981093 428.751965 386.276527 445.852856 406.867395 429.798959 416.290335 412.000072 421.001805 392.456197 421.001805 372.912322 421.001805 353.717445 416.290335 334.871565 406.867395z"/>
    <circle cx="176.853" cy="397.557" r="23.557" fill="#FF7900"/>
    <ellipse cx="394.55" cy="400.208" fill="#FF7900" rx="23.034" ry="23.557"/>
    <path fill="#663C16" d="M285.5,0 C395,0 516,79.5 548,154.5 C580,229.5 591.5,299 583.5,326 C575.5,353 557.5,488.5 548,533 C538.5,577.5 548.5,754 515.5,818 C482.5,882 356,917 285.5,917 C215,917 84,886 51.5,748 C19,610 40.6193503,589.143961 26.5,504 C10,404.5 31.3637274,395.65994 34,347 C37.2954763,286.172574 15,264 34,194 C61.000519,94.5244038 176,0 285.5,0 Z M293,8.5 C145,8.5 91.5,128.5 68,179 C44.5,229.5 68,259.5 68,302.5 C68,345.5 32.5,385.5 44.5,461 C56.5,536.5 44.5,597.5 68,684.5 C91.5,771.5 92.5,715.5 110,701 C127.5,686.5 128,622 156,597.5 C184,573 233,560 264.5,560 C296,560 339,574 382.5,597.5 C426,621 435.5,684.5 452,701 C468.5,717.5 490.5,722 508,684.5 C525.5,647 508,598.5 520,574 C532,549.5 533,527 545.5,489.5 C558,452 520,354.5 508,317 C496,279.5 531.5,218 520,179 C508.5,140 441,8.5 293,8.5 Z"/>
    <path fill="#663C16" d="M42,379.232649 C34,370.124049 23.3333333,366.507399 10,368.382699 C-3.33333333,370.257999 -3.33333333,389.948649 10,427.45465 C17.3333333,444.06445 21,460.0045 21,475.2748 C21,498.18025 -3,515.459801 10,548.411501 C18.6666667,570.379301 26.5,578.148401 33.5,571.718801 L42,482.10625 L33.5,401.736249 L42,379.232649 Z"/>
    <path fill="#AA869F" d="M177,630 C204.885965,612.166667 227.355263,603.25 244.407895,603.25 C269.986842,603.25 267.144737,612.913158 278.513158,612.913158 C289.881579,612.913158 292.723684,603.25 306.934211,603.25 C316.407895,603.25 336.429825,612.5 367,631 C330.745614,648.5 301.25,657.25 278.513158,657.25 C255.776316,657.25 221.938596,648.166667 177,630 Z"/>
    <ellipse cx="186.683" cy="390.045" fill="#FFF" rx="7.329" ry="7.852"/>
    <ellipse cx="401.796" cy="392.733" fill="#FFF" rx="6.722" ry="6.282"/>
    <path fill="#663C16" d="M236 370.5L248 345C226 333 201.166667 327 173.5 327 132 327 95 334 95 348.5 95 363 114 378.5 114 374.5 114 370.5 138 348.5 161.5 351 177.166667 352.666667 202 359.166667 236 370.5zM337.5 364L327.5 340.5C358.166667 336.166667 382 334 399 334 424.5 334 474.5 349 481.5 364 486.166667 374 483 384 472 394 452.666667 374 431 364 407 364 383 364 359.833333 364 337.5 364zM295 298C289.666667 320.333333 289.666667 338 295 351 300.333333 364 308.666667 370.5 320 370.5 314 366.166667 308.333333 359.666667 303 351 297.666667 342.333333 295 324.666667 295 298z"/>
    <path fill="#C87AB2" d="M280,357.5 C266.333333,357.5 258.166667,364.666667 255.5,379 L248,490 C229,491.666667 217,496.666667 212,505 C204.5,517.5 198,541 205,548 C212,555 214.5,537.5 226.5,537.5 C238.5,537.5 238.5,551.5 267,551.5 C295.5,551.5 289.5,540.5 301.5,540.5 C313.5,540.5 312.5,551.5 320,551.5 C327.5,551.5 341,520 327.5,505 C318.5,495 309.833333,490 301.5,490 L305.5,375 C302.166667,363.333333 293.666667,357.5 280,357.5 Z"/>
    <path fill="#663C16" d="M345.5 492C342.166667 511 344 526.666667 351 539 361.5 557.5 381 566 400 577 412.666667 584.333333 424.666667 602 436 630 433.666667 604.666667 423.5 584.666667 405.5 570 378.5 548 373 552 362 539 354.666667 530.333333 349.166667 514.666667 345.5 492zM191.374569 501.5C190.964385 532.5 179.069053 555 155.688572 569 132.308091 583 115.28546 608.5 104.620679 645.5 102.979944 623.5 109.542886 605.166667 124.309505 590.5 146.459435 568.5 147.689986 568.5 167.994088 550 181.530156 537.666667 189.32365 521.5 191.374569 501.5z"/>
    <ellipse cx="293.478" cy="48" fill="#FFF" rx="65" ry="23.5"/>
    <path fill="#663C16" d="M157.5,624.5 C179.103623,623.838261 193.936956,622.838261 202,621.5 C219.802701,618.545203 231.934788,612 236.5,612 C248,612 258,619 274.5,619 C291,619 291,612 305.5,612 C311.093516,612 327.357298,620.482114 344,624.5 C352.079381,626.450526 365.912715,628.28386 385.5,630 C364.369255,630.850662 350.535922,630.850662 344,630 C323.738674,627.362951 315.71014,621.123188 306.5,620 C286,617.5 290,624.5 275,624.5 C260,624.5 254.5,619 236.5,619 C230.370093,619 213.1748,626.868687 202,630 C194.865893,631.999062 180.032559,630.165729 157.5,624.5 Z"/>
    <path fill="#663C16" d="M234,369.657821 C215.077937,384.817611 196.938626,392.574453 179.582069,392.928348 C162.225511,393.282242 143.198155,384.192066 122.5,365.657821 L122.5,384.157821 C142.882581,398.498298 162.225511,404.429907 180.52879,401.952648 C198.832069,399.475389 216.655805,388.710447 234,369.657821 Z" transform="matrix(1 0 0 -1 0 768.158)"/>
    <path fill="#663C16" d="M334.626839 404.982192C354.627676 383.369729 370.96154 371.931857 383.628433 370.668576 396.295325 369.405296 417.085847 374.682437 446 386.5L446 405C425.197999 385.545728 406.455386 376.650509 389.772162 378.314342 373.088938 379.978176 354.707164 388.867459 334.626839 404.982192zM234 399C215.060177 411.286952 196.7542 417.430429 179.082069 417.430429 161.409938 417.430429 142.475511 411.792533 122.27879 400.516742L122.27879 405.545135C138.09293 417.848378 156 424 176 424 196 424 215.333333 415.666667 234 399z"/>
    <path fill="#663C16" d="M332.867119 404.864116C353.948052 414.280415 374.408957 418.988565 394.249835 418.988565 414.090713 418.988565 430.507434 413.492377 443.5 402.5L445.867119 406.276561C426.336255 419.145503 407.270411 424.952222 388.669588 423.696715 370.068765 422.441208 351.467942 416.163675 332.867119 404.864116zM555 469C562.333333 445 569.333333 430.5 576 425.5 582.666667 420.5 584.833333 426 582.5 442 584.833333 468.666667 581.666667 488.5 573 501.5 564.333333 514.5 556 524 548 530L536 545 560 530C577.333333 513 586 492.666667 586 469 586 433.5 599 418.499158 582.5 418.499158 571.5 418.499158 564 426.332772 560 442L555 469z"/>
    <path fill="#C3C09D" d="M35.1296019,479.71729 C28.8761123,467.144642 25.7751693,453.427304 25.2321022,438.566035 C24.4175016,416.274132 32.4879764,418.418579 28.7685293,403.843675 C25.675698,389.26797 18.8564928,394.837308 10.7082553,389.259068 C5.86175752,385.539492 6.40461984,382.394921 11.7421715,379.826114 C25.4742773,378.980111 32.7866405,382.129126 33.9077915,389.272866 C35.5895179,399.988475 30.4935659,424.419571 31.6795286,438.565499 C32.4701704,447.996118 33.6201948,461.713381 35.1296019,479.71729 Z"/>
    <path fill="#FFF" d="M253.692511,502.250516 C247.374883,507.634849 244.304679,519.300904 247.911786,526.480015 C251.449986,533.659126 279.517939,535.453904 284.373972,530.96696 C289.291529,526.480015 292.907831,505.391377 285.052113,502.250516 C277.127487,499.109655 260.106117,496.866182 253.692511,502.250516 Z"/>
  </g>
</svg>
